#!OML:ASF I:\Actors\actors\Patient Classification 1\Patient 1\Session 1\Subject1.ASF
:FULLY-SPECIFIED
:DEGREES
3345
root 1.84313 17.6755 8.76433 16.2214 25.0454 -8.97011
lowerback 8.23917 4.13514 8.83069
upperback -9.47211 7.0927 -0.115208
thorax -14.1167 2.45596 -6.42822
lowerneck -2.3352 -12.4926 -11.6229
upperneck 2.94395 -16.9341 13.0388
head 3.36574 -8.30683 4.87503
rclavicle 7.99487e-015 -1.30204e-014
rhumerus 79.959 -15.4762 -86.5587
rradius 21.0404
rwrist 21.1847
rhand 4.24163 -71.1237
rfingers 7.12502
rthumb 29.6464 818.774
lclavicle 7.99487e-015 -1.30204e-014
lhumerus -56.2162 -8.4606 84.4814
lradius 100.603
lwrist 46.9082
lhand -41.9917 -26.4578
lfingers 7.12502
lthumb -14.8872 2.98733
rfemur -3.60047 29.1152 21.8699
rtibia -1.12354
rfoot -47.5882 -45.2783
rtoes 33.2057
lfemur -21.1473 -23.0954 -6.84705
ltibia 8.80525
lfoot -8.78259 9.82388
ltoes -11.4492
3346
root 1.84281 17.6775 8.77232 16.1532 25.1593 -8.99393
lowerback 8.43843 4.01361 9.04636
upperback -9.80155 7.03518 0.0149454
thorax -14.6568 2.36768 -6.43791
lowerneck -0.0513264 -12.1429 -11.8891
upperneck 2.34089 -16.6174 13.1071
head 2.80412 -8.24658 5.13287
rclavicle -6.11605e-014 -2.75317e-014
rhumerus 81.1217 -14.8726 -84.4598
rradius 21.4575
rwrist 20.0818
rhand 3.48725 -70.6544
rfingers 7.12502
rthumb 28.9261 818.431
lclavicle -6.11605e-014 -2.75317e-014
lhumerus -57.3585 -8.35875 84.7946
lradius 100.844
lwrist 46.6182
lhand -42.0528 -26.661
lfingers 7.12502
lthumb -14.946 2.7797
rfemur -3.46704 29.0833 22.0059
rtibia -1.15333
rfoot -47.6914 -45.3598
rtoes 33.2157
lfemur -21.2477 -23.3171 -6.80407
ltibia 9.11362
lfoot -8.91463 9.87286
ltoes -11.278
3347
root 1.84174 17.6773 8.78011 16.0896 25.2403 -8.98015
lowerback 8.68495 3.91487 9.2353
upperback -9.6971 6.95529 0.0697983
thorax -14.6909 2.31055 -6.48634
lowerneck 0.275092 -12.0209 -12.237
upperneck 2.34571 -16.4967 13.3886
head 2.79114 -8.19845 5.29657
rclavicle -5.83619e-015 -4.23163e-014
rhumerus 83.1542 -14.4414 -83.1772
rradius 21.902
rwrist 20.2188
rhand 3.09908 -70.2467
rfingers 7.12502
rthumb 28.5552 818.086
lclavicle -5.83619e-015 -4.23163e-014
lhumerus -57.2598 -8.28727 84.9683
lradius 100.915
lwrist 46.4681
lhand -42.1262 -26.9771
lfingers 7.12502
lthumb -15.0167 2.45837
rfemur -3.31878 29.0122 22.1159
rtibia -1.20016
rfoot -47.6029 -45.5604
rtoes 33.0226
lfemur -21.3415 -23.4245 -6.83075
ltibia 9.45315
lfoot -9.10112 9.85177
ltoes -10.9449
3348
root 1.83937 17.675 8.78453 16.0269 25.2503 -8.98936
lowerback 8.97852 3.8496 9.44141
upperback -9.15866 6.87571 0.068088
thorax -14.2129 2.29435 -6.58243
lowerneck -1.41613 -12.1982 -11.7465
upperneck 2.6589 -16.5935 13.1231
head 3.10753 -8.17808 5.01929
rclavicle -4.26906e-014 1.18774e-014
rhumerus 85.9115 -14.2739 -82.154
rradius 22.3462
rwrist 20.8445
rhand 2.50325 -69.4122
rfingers 7.12502
rthumb 27.9858 817.346
lclavicle -4.26906e-014 1.18774e-014
lhumerus -55.959 -8.23949 84.9661
lradius 100.792
lwrist 46.4136
lhand -42.2847 -27.0596
lfingers 7.12502
lthumb -15.1694 2.36439
rfemur -3.22982 28.953 22.2105
rtibia -1.23512
rfoot -47.529 -45.727
rtoes 32.9103
lfemur -21.4441 -23.3381 -6.86321
ltibia 9.79554
lfoot -9.27286 9.77161
ltoes -10.8757
3349
root 1.83513 17.6718 8.7858 15.9672 25.1903 -9.00048
lowerback 9.20847 3.84003 9.57936
upperback -9.09497 6.90734 0.0797628
thorax -14.2651 2.29114 -6.67107
lowerneck -0.749493 -12.0904 -11.3796
upperneck 2.35793 -16.4758 12.9283
head 2.84767 -8.14884 4.97503
rclavicle 5.23965e-015 -1.19566e-014
rhumerus 87.237 -14.3231 -80.3487
rradius 22.9515
rwrist 21.1548
rhand 1.53829 -68.1444
rfingers 7.12502
rthumb 27.0629 816.225
lclavicle 5.23965e-015 -1.19566e-014
lhumerus -56.0182 -8.23825 85.1097
lradius 100.89
lwrist 46.2007
lhand -42.4217 -26.9644
lfingers 7.12502
lthumb -15.3014 2.44952
rfemur -3.19073 28.9609 22.2841
rtibia -1.22705
rfoot -47.7329 -45.7612
rtoes 33.0714
lfemur -21.5247 -23.1959 -6.90366
ltibia 10.1033
lfoot -9.40978 9.7132
ltoes -11.1048
3350
root 1.82991 17.6685 8.78517 15.9178 25.0896 -8.99586
lowerback 9.45087 3.80289 9.67465
upperback -8.93559 6.89243 0.138768
thorax -14.2268 2.28245 -6.67036
lowerneck -0.514207 -11.9774 -11.107
upperneck 2.18689 -16.321 12.7527
head 2.70248 -8.08353 4.92
rclavicle 1.70271e-014 1.03865e-014
rhumerus 88.405 -14.3121 -78.4591
rradius 23.733
rwrist 21.4796
rhand -0.473198 -66.4881
rfingers 7.12502
rthumb 25.1371 814.853
lclavicle 1.70271e-014 1.03865e-014
lhumerus -55.9538 -8.03955 85.2465
lradius 101.013
lwrist 45.8668
lhand -42.563 -27.1045
lfingers 7.12502
lthumb -15.4375 2.29905
rfemur -3.15514 29.0048 22.3416
rtibia -1.21917
rfoot -47.8799 -45.8328
rtoes 33.1958
lfemur -21.6097 -22.9716 -6.9667
ltibia 10.4267
lfoot -9.54424 9.57176
ltoes -11.2932
3351
root 1.82504 17.6658 8.78184 15.8629 24.9562 -9.02339
lowerback 9.7453 3.75193 9.80206
upperback -8.75932 6.87628 0.250825
thorax -14.2056 2.27234 -6.63221
lowerneck -0.258345 -11.8383 -10.6898
upperneck 1.8056 -16.1066 12.4027
head 2.45891 -7.99309 4.80611
rclavicle -3.57626e-014 3.50855e-014
rhumerus 89.3901 -14.1898 -76.44
rradius 24.2251
rwrist 22.0931
rhand -3.86148 -64.4387
rfingers 7.12502
rthumb 21.887 813.221
lclavicle -3.57626e-014 3.50855e-014
lhumerus -55.8587 -7.77025 85.4417
lradius 101.112
lwrist 45.5367
lhand -42.8001 -27.3035
lfingers 7.12502
lthumb -15.6658 2.08227
rfemur -3.13154 28.9818 22.4143
rtibia -1.22014
rfoot -47.8947 -45.8302
rtoes 33.3276
lfemur -21.7258 -22.6376 -7.00957
ltibia 10.7962
lfoot -9.70015 9.35633
ltoes -11.3961
3352
root 1.8197 17.6639 8.77534 15.8306 24.8009 -9.08431
lowerback 10.0439 3.73904 9.97516
upperback -8.60081 6.92721 0.392972
thorax -14.1965 2.29016 -6.59893
lowerneck 0.0116306 -11.7541 -9.99946
upperneck 1.29223 -15.9415 11.6403
head 2.1246 -7.93096 4.53594
rclavicle -2.49351e-014 -3.23025e-014
rhumerus 90.2668 -14.1656 -74.6048
rradius 24.4148
rwrist 23.6094
rhand -7.52256 -62.3798
rfingers 7.12502
rthumb 18.3682 811.533
lclavicle -2.49351e-014 -3.23025e-014
lhumerus -55.8343 -7.55809 85.7643
lradius 101.228
lwrist 45.3012
lhand -43.0916 -27.5285
lfingers 7.12502
lthumb -15.9465 1.83506
rfemur -3.19556 28.909 22.4696
rtibia -1.17912
rfoot -47.9304 -45.6658
rtoes 33.594
lfemur -21.939 -22.2969 -6.98873
ltibia 11.2595
lfoot -9.88512 9.18367
ltoes -11.2844
3353
root 1.81561 17.6603 8.76409 15.9238 24.6379 -9.11856
lowerback 10.2242 3.77555 10.1716
upperback -8.4653 7.03521 0.516419
thorax -14.1253 2.33665 -6.5984
lowerneck 0.055566 -11.6861 -9.99336
upperneck 1.25839 -15.8448 11.533
head 2.08753 -7.88572 4.51508
rclavicle -7.61594e-014 9.54166e-015
rhumerus 91.0563 -14.2539 -73.2384
rradius 24.5148
rwrist 26.0958
rhand -10.7438 -60.5886
rfingers 7.12502
rthumb 15.2673 810.005
lclavicle -7.61594e-014 9.54166e-015
lhumerus -55.8308 -7.46472 86.1375
lradius 101.292
lwrist 45.1102
lhand -43.3462 -27.8391
lfingers 7.12502
lthumb -16.1918 1.50465
rfemur -3.44916 28.7995 22.3873
rtibia -1.11031
rfoot -47.7283 -45.5672
rtoes 33.7305
lfemur -22.3379 -21.9958 -6.92624
ltibia 11.7874
lfoot -10.0357 9.06008
ltoes -11.0433
3354
root 1.81392 17.6552 8.74878 16.1357 24.455 -9.11976
lowerback 10.3108 3.82526 10.3954
upperback -8.3568 7.15397 0.618482
thorax -14.0201 2.387 -6.63023
lowerneck 0.201026 -11.5999 -9.8326
upperneck 0.950907 -15.7078 11.3227
head 1.92838 -7.82677 4.46121
rclavicle -2.53202e-014 -2.80286e-014
rhumerus 91.6781 -14.2678 -72.1716
rradius 24.6033
rwrist 28.5411
rhand -14.3187 -58.7495
rfingers 7.12502
rthumb 11.8218 631.604
lclavicle -2.53202e-014 -2.80286e-014
lhumerus -55.8586 -7.43297 86.4607
lradius 101.326
lwrist 45.0952
lhand -43.4361 -27.8765
lfingers 7.12502
lthumb -16.2783 1.46024
rfemur -3.85764 28.6527 22.1659
rtibia -1.04075
rfoot -47.2083 -45.6258
rtoes 33.5276
lfemur -22.8498 -21.7683 -6.84648
ltibia 12.2524
lfoot -10.1237 9.0539
ltoes -11.0201
